<svg xmlns="http://www.w3.org/2000/svg" width="284.06" height="98.15" viewBox="0 0 284.06 98.15"><path fill="#fff" d="M101.437 30.853c-.314-12.172-4.983-21.723-13.112-26.876-8.108-5.153-18.736-5.303-29.881-.419-2.367 1.041-4.695 2.292-6.973 3.716-4.287-1.509-8.738-2.287-13.255-2.287-10.212 0-19.791 3.756-27.008 10.591-7.219 6.838-11.208 15.938-11.208 25.619 0 12.692 6.99 24.35 18.356 30.908 1.28 9.874 5.697 17.614 12.721 22.068 8.131 5.154 18.74 5.303 29.896.418 11.138-4.886 21.463-14.191 29.111-26.225 7.638-12.052 11.66-25.369 11.353-37.513z"/><path fill="#C3003C" d="M63.766 27.595c-8.091 0-14.653 6.552-14.653 14.655 0 5.526 3.064 10.336 7.583 12.833-1.793 2.59-4.164 4.75-6.831 6.233-2.824 1.544-5.861 2.337-9.045 2.337-.407 0-.818-.017-1.257-.047l-.368-.027.156.333c.616 1.314 1.377 2.512 2.26 3.583l.067.081.105-.004c4.217-.115 8.222-1.144 11.9-3.048 3.519-1.834 6.62-4.442 8.936-7.554l.088-.118c.351.025.701.054 1.059.054 8.089 0 14.655-6.566 14.655-14.656 0-8.104-6.566-14.655-14.655-14.655z"/><path fill="#fff" d="M61.623 44.832l.547 1.301c.071.13.094.198.094.242 0 .221-.31.463-.881.706-.676.308-1.556.485-2.46.485-3.154 0-4.963-2.146-4.963-5.596 0-3.635 2.025-5.709 5.32-5.709 1.167 0 2.272.33 3.011.88.166.134.26.244.26.353 0 .067-.022.178-.071.244l-.808 1.33c-.048.111-.12.154-.194.154-.068 0-.144-.015-.234-.087-.646-.518-1.271-.797-1.938-.797-1.596 0-2.617 1.357-2.617 3.643 0 2.13 1.021 3.4 2.64 3.4.617 0 1.238-.174 1.866-.594.096-.066.189-.11.24-.11.093-.001.141.043.188.155zM64.452 45.385l5.181-7.033-.687.358h-3.677c-.352 0-.376-.021-.376-.372v-1.33c0-.331.045-.374.376-.374h6.719c.31 0 .354.043.354.374v1.481l-5.119 6.847.627-.351h4.554c.244 0 .358.069.358.224l-.024.111-.043.109-.641 1.472c-.089.196-.177.265-.397.265h-6.828c-.332 0-.377-.043-.377-.374v-1.407z"/><path fill="#C3003C" d="M55.073 28.062c1.571-1.196 3.414-2.078 5.415-2.54l-.01-.012c-1.219-1.238-2.611-2.396-4.139-3.429l-.098-.076-.116.068c-1.43.834-2.825 1.796-4.145 2.844l-.219.177.224.167c1.112.818 2.149 1.76 3.088 2.801zM28.091 58.686c-4.486-4.017-7.037-9.86-7.037-16.083 0-11.616 8.863-21.063 19.766-21.063 1.914 0 3.823.3 5.663.886 1.405-1.19 2.863-2.265 4.339-3.207l-.003-.001c-3.163-1.197-6.463-1.807-9.814-1.807-7.079 0-13.718 2.604-18.721 7.341-5.005 4.741-7.77 11.048-7.77 17.759 0 9.238 5.334 17.694 13.921 22.087-.279-1.889-.399-3.861-.344-5.912z"/><path fill="#FF9200" d="M89.007 35.003c-.218-8.437-3.454-15.057-9.088-18.629-5.62-3.572-12.988-3.676-20.713-.291-7.713 3.392-14.886 9.839-20.186 18.18-5.296 8.352-8.084 17.583-7.863 26.002.223 8.438 3.444 15.056 9.079 18.63 5.637 3.572 12.99 3.675 20.723.29 7.72-3.387 14.878-9.837 20.179-18.178 5.295-8.355 8.083-17.586 7.869-26.004zm-43.673 35.404c-9.534-6.057-10.283-22.032-1.667-35.609 5.088-8.009 12.627-13.8 20.172-15.476 4.77-1.068 9.18-.429 12.75 1.835 9.54 6.057 10.288 22.019 1.671 35.608-8.614 13.577-23.387 19.686-32.926 13.642z"/><g fill="#C3003C"><path d="M106.102 56.968l-1.123-3.16h-5.726l-1.111 3.16h-1.9l4.891-13.5h2.081l4.948 13.5h-2.06zm-3.409-9.68c-.121-.333-.228-.65-.321-.95-.094-.3-.181-.597-.261-.89h-.04l-.258.9c-.092.307-.192.607-.298.9l-1.806 5.1h4.788l-1.804-5.06zM110.122 56.968v-14.6h1.8v14.6h-1.8zM115.422 56.968v-14.6h1.8v14.6h-1.8zM128.262 50.928c0 .28-.02.653-.06 1.12h-6.5c-.04 1.2.196 2.107.71 2.72.513.614 1.323.92 2.43.92.48 0 .963-.05 1.45-.15.486-.1.95-.243 1.39-.43l.26 1.4c-.507.207-1.05.365-1.63.475-.58.109-1.184.165-1.81.165-1.52 0-2.677-.417-3.47-1.25-.793-.833-1.19-2.117-1.19-3.85 0-.747.104-1.44.31-2.08s.503-1.19.89-1.65.853-.82 1.4-1.08c.547-.26 1.173-.39 1.88-.39.667 0 1.257.107 1.77.32s.93.51 1.25.89c.32.38.553.817.7 1.31.146.494.22 1.014.22 1.56zm-2.41-2.04c-.394-.453-.943-.68-1.65-.68-.654 0-1.197.223-1.63.67s-.71 1.077-.83 1.89h4.68c.013-.8-.177-1.426-.57-1.88zM136.781 53.968c0 .454-.097.874-.29 1.26-.193.387-.47.724-.83 1.01-.36.287-.8.51-1.32.67s-1.107.24-1.76.24c-.387 0-.773-.019-1.16-.056-.387-.037-.733-.098-1.04-.185l.159-1.62c.318.134.67.233 1.055.3.385.067.763.1 1.135.1.637 0 1.155-.137 1.553-.41.398-.273.598-.643.598-1.11 0-.374-.113-.66-.339-.86-.226-.2-.511-.363-.856-.49-.345-.126-.713-.243-1.105-.35-.392-.106-.76-.26-1.105-.46s-.631-.467-.856-.8c-.226-.333-.338-.793-.338-1.38 0-.853.33-1.563.99-2.13.66-.566 1.65-.85 2.97-.85.307 0 .626.017.96.05.333.033.653.083.96.15l-.14 1.5c-.293-.106-.607-.183-.94-.23-.333-.047-.667-.07-1-.07-.667 0-1.157.128-1.47.385-.313.256-.47.595-.47 1.016 0 .373.113.657.34.85.227.194.513.357.86.49s.72.26 1.12.38c.4.12.773.277 1.12.47s.633.457.86.79c.226.334.339.78.339 1.34zM148.213 56.968h-2.06l-3.612-9.94h2l2.092 6.08c.133.374.243.72.329 1.04.086.32.169.646.249.98h.04c.081-.32.168-.643.263-.97.094-.327.195-.663.303-1.01l2.164-6.12h1.9l-3.668 9.94zM161.821 51.828c0 .747-.117 1.443-.35 2.09-.233.646-.56 1.21-.98 1.69s-.93.857-1.53 1.13c-.6.273-1.267.41-2 .41-.68 0-1.293-.1-1.84-.3-.547-.2-1.013-.506-1.4-.92-.387-.413-.687-.937-.9-1.57-.213-.633-.32-1.39-.32-2.27 0-.733.11-1.417.33-2.05.22-.633.54-1.187.96-1.66.42-.473.93-.847 1.53-1.12.6-.273 1.273-.41 2.02-.41.64 0 1.233.09 1.78.27.547.18 1.02.47 1.42.87.4.4.713.917.94 1.55.227.634.34 1.397.34 2.29zm-1.9.11c0-1.136-.229-2.019-.685-2.647-.457-.628-1.142-.943-2.055-.943-.357 0-.705.07-1.043.211-.337.141-.635.357-.893.652-.258.294-.463.665-.616 1.113s-.228.979-.228 1.594c0 1.217.234 2.143.705 2.778.47.635 1.162.953 2.075.953.371 0 .721-.074 1.052-.221s.622-.375.874-.682c.251-.307.45-.692.596-1.153.145-.462.218-1.013.218-1.655zM172.821 51.828c0 .747-.117 1.443-.35 2.09-.233.646-.56 1.21-.98 1.69s-.93.857-1.53 1.13c-.6.273-1.267.41-2 .41-.68 0-1.293-.1-1.84-.3-.547-.2-1.013-.506-1.4-.92-.387-.413-.687-.937-.9-1.57-.213-.633-.32-1.39-.32-2.27 0-.733.11-1.417.33-2.05.22-.633.54-1.187.96-1.66.42-.473.93-.847 1.53-1.12.6-.273 1.273-.41 2.02-.41.64 0 1.233.09 1.78.27.547.18 1.02.47 1.42.87.4.4.713.917.94 1.55.227.634.34 1.397.34 2.29zm-1.9.11c0-1.136-.229-2.019-.685-2.647-.457-.628-1.142-.943-2.055-.943-.357 0-.705.07-1.043.211-.337.141-.635.357-.893.652-.258.294-.463.665-.616 1.113s-.228.979-.228 1.594c0 1.217.234 2.143.705 2.778.47.635 1.162.953 2.075.953.371 0 .721-.074 1.052-.221s.622-.375.874-.682c.251-.307.45-.692.596-1.153.145-.462.218-1.013.218-1.655zM180.321 48.628c-1.054-.187-1.833.09-2.34.83-.507.74-.76 1.91-.76 3.51v4h-1.8v-9.94h1.74c0 .307-.017.673-.05 1.1-.034.427-.09.847-.17 1.26h.04c.107-.347.25-.683.43-1.01s.41-.61.69-.85c.28-.24.61-.427.99-.56s.816-.173 1.31-.12l-.08 1.78zM195.681 51.528c0 .867-.12 1.647-.36 2.34-.24.693-.583 1.28-1.03 1.76-.447.48-.99.847-1.63 1.1-.64.253-1.36.38-2.16.38-.693 0-1.304-.03-1.83-.09-.527-.06-1.057-.163-1.59-.31v-14.34h1.8v4.82c0 .293-.014.613-.04.96-.027.347-.073.646-.14.9l.04.02c.267-.707.69-1.253 1.27-1.64s1.25-.58 2.01-.58c1.173 0 2.077.397 2.71 1.19.633.794.95 1.957.95 3.49zm-1.9.18c0-1.08-.176-1.91-.528-2.49-.352-.58-.906-.87-1.663-.87-.452 0-.847.12-1.185.36-.339.24-.621.543-.847.91-.226.367-.395.777-.508 1.23-.113.454-.169.894-.169 1.32v3.3c.266.08.538.14.816.18s.591.06.937.06c.478 0 .91-.073 1.294-.22.385-.146.714-.38.986-.7.272-.32.485-.733.638-1.24.152-.506.229-1.12.229-1.84zM205.881 50.928c0 .28-.02.653-.06 1.12h-6.5c-.04 1.2.196 2.107.71 2.72.513.614 1.323.92 2.43.92.48 0 .963-.05 1.45-.15.486-.1.95-.243 1.39-.43l.26 1.4c-.507.207-1.05.365-1.63.475-.58.109-1.184.165-1.81.165-1.52 0-2.677-.417-3.47-1.25-.793-.833-1.19-2.117-1.19-3.85 0-.747.104-1.44.31-2.08s.503-1.19.89-1.65.853-.82 1.4-1.08c.547-.26 1.173-.39 1.88-.39.667 0 1.257.107 1.77.32s.93.51 1.25.89c.32.38.553.817.7 1.31.146.494.22 1.014.22 1.56zm-2.41-2.04c-.394-.453-.943-.68-1.65-.68-.654 0-1.197.223-1.63.67s-.71 1.077-.83 1.89h4.68c.013-.8-.177-1.426-.57-1.88zM212.68 57.074c-.36.036-.7.055-1.02.055-.507 0-.93-.054-1.27-.16-.34-.106-.614-.28-.82-.52-.207-.24-.354-.55-.44-.93-.087-.38-.13-.836-.13-1.37v-5.72h-2.04v-1.4h2.04v-3.22l1.8-.5v3.72h2.78v1.4h-2.78v5.08c0 .414.02.753.06 1.02s.117.48.23.64c.113.16.26.27.44.33s.41.09.69.09c.453 0 .874-.053 1.26-.16l.18 1.5c-.293.06-.619.108-.98.145zM223.661 50.928c0 .28-.02.653-.06 1.12h-6.5c-.04 1.2.196 2.107.71 2.72.513.614 1.323.92 2.43.92.48 0 .963-.05 1.45-.15.486-.1.95-.243 1.39-.43l.26 1.4c-.507.207-1.05.365-1.63.475-.58.109-1.184.165-1.81.165-1.52 0-2.677-.417-3.47-1.25-.793-.833-1.19-2.117-1.19-3.85 0-.747.104-1.44.31-2.08s.503-1.19.89-1.65.853-.82 1.4-1.08c.547-.26 1.173-.39 1.88-.39.667 0 1.257.107 1.77.32s.93.51 1.25.89c.32.38.553.817.7 1.31.146.494.22 1.014.22 1.56zm-2.411-2.04c-.394-.453-.943-.68-1.65-.68-.654 0-1.197.223-1.63.67s-.71 1.077-.83 1.89h4.68c.013-.8-.176-1.426-.57-1.88zM231.28 48.628c-1.054-.187-1.833.09-2.34.83-.507.74-.76 1.91-.76 3.51v4h-1.8v-9.94h1.74c0 .307-.017.673-.05 1.1-.034.427-.09.847-.17 1.26h.04c.107-.347.25-.683.43-1.01s.41-.61.69-.85c.28-.24.61-.427.99-.56s.816-.173 1.31-.12l-.08 1.78zM240.861 50.928c0 .28-.02.653-.06 1.12h-6.5c-.04 1.2.196 2.107.71 2.72.513.614 1.323.92 2.43.92.48 0 .963-.05 1.45-.15.486-.1.95-.243 1.39-.43l.26 1.4c-.507.207-1.05.365-1.63.475-.58.109-1.184.165-1.81.165-1.52 0-2.677-.417-3.47-1.25-.793-.833-1.19-2.117-1.19-3.85 0-.747.104-1.44.31-2.08s.503-1.19.89-1.65.853-.82 1.4-1.08c.547-.26 1.173-.39 1.88-.39.667 0 1.257.107 1.77.32s.93.51 1.25.89c.32.38.553.817.7 1.31.146.494.22 1.014.22 1.56zm-2.41-2.04c-.394-.453-.943-.68-1.65-.68-.654 0-1.197.223-1.63.67s-.71 1.077-.83 1.89h4.68c.013-.8-.177-1.426-.57-1.88zM247.3 56.968v-1.26l4.76-7.1c-.28.013-.65.023-1.11.03-.46.007-.963.01-1.51.01h-2.04v-1.62h6.76v1.28l-4.7 7.04.52-.01.7-.02.76-.01h2.82v1.66h-6.96zM265.24 51.828c0 .747-.117 1.443-.35 2.09-.233.646-.56 1.21-.98 1.69s-.93.857-1.53 1.13c-.6.273-1.267.41-2 .41-.68 0-1.293-.1-1.84-.3-.547-.2-1.013-.506-1.4-.92-.387-.413-.687-.937-.9-1.57-.213-.633-.32-1.39-.32-2.27 0-.733.11-1.417.33-2.05.22-.633.54-1.187.96-1.66.42-.473.93-.847 1.53-1.12.6-.273 1.273-.41 2.02-.41.64 0 1.233.09 1.78.27.547.18 1.02.47 1.42.87.4.4.713.917.94 1.55.226.634.34 1.397.34 2.29zm-1.9.11c0-1.136-.229-2.019-.685-2.647-.457-.628-1.142-.943-2.055-.943-.357 0-.705.07-1.043.211-.337.141-.635.357-.893.652-.258.294-.463.665-.616 1.113s-.228.979-.228 1.594c0 1.217.234 2.143.705 2.778.47.635 1.162.953 2.075.953.371 0 .721-.074 1.052-.221s.622-.375.874-.682c.251-.307.45-.692.596-1.153.145-.462.218-1.013.218-1.655zM272.74 48.628c-1.054-.187-1.833.09-2.34.83-.507.74-.76 1.91-.76 3.51v4h-1.8v-9.94h1.74c0 .307-.017.673-.05 1.1-.034.427-.09.847-.17 1.26h.04c.107-.347.25-.683.43-1.01s.41-.61.69-.85c.28-.24.61-.427.99-.56s.816-.173 1.31-.12l-.08 1.78zM283.38 58.308c0 .52-.127 1.01-.38 1.47s-.613.86-1.08 1.2c-.467.34-1.023.61-1.67.81-.647.2-1.357.3-2.13.3-1.293 0-2.313-.257-3.06-.77-.747-.514-1.12-1.25-1.12-2.21 0-.587.163-1.11.49-1.57.327-.46.716-.816 1.17-1.07-.307-.133-.547-.33-.72-.59-.174-.26-.26-.557-.26-.89 0-.347.1-.673.3-.98.2-.307.467-.54.8-.7-.454-.267-.81-.626-1.07-1.08-.26-.453-.39-1.006-.39-1.66 0-.493.093-.967.28-1.42.187-.453.457-.85.81-1.19.353-.34.793-.61 1.32-.81.527-.2 1.13-.3 1.81-.3.267 0 .503.014.71.04.207.027.437.074.69.14h3.38v1.4h-1.64c.253.201.45.462.59.783.14.321.21.676.21 1.063 0 .509-.086.984-.26 1.426-.173.441-.434.823-.78 1.144-.347.321-.784.575-1.31.763-.527.188-1.144.281-1.85.281-.374 0-.727-.046-1.06-.14-.213.107-.374.234-.48.38-.107.146-.16.3-.16.46 0 .28.133.473.4.58.267.106.7.173 1.3.2l1.82.06c1.08.04 1.907.304 2.48.79.573.487.86 1.183.86 2.09zm-1.8.229c0-.482-.164-.865-.492-1.146-.328-.281-.846-.436-1.555-.462l-1.927-.08h-.301l-.281-.02c-.388.268-.699.566-.933.895-.234.328-.351.687-.351 1.075 0 .604.25 1.069.752 1.397.501.328 1.147.493 1.937.493 1.017 0 1.796-.205 2.338-.613.542-.41.813-.923.813-1.539zm-.96-8.129c0-.68-.192-1.22-.575-1.62-.383-.4-.932-.6-1.646-.6-.753 0-1.332.21-1.734.63-.403.42-.605.95-.605 1.59 0 .693.195 1.23.585 1.61.39.38.955.57 1.695.57.713 0 1.272-.19 1.675-.57.403-.38.605-.916.605-1.61z"/></g></svg>