<svg xmlns="http://www.w3.org/2000/svg" width="74.062" height="71.648" viewBox="0 0 74.062 71.648"><path fill="#fff" d="M74.051 22.521c-.229-8.885-3.639-15.856-9.571-19.62-5.92-3.761-13.678-3.871-21.814-.306-1.728.76-3.428 1.674-5.09 2.714-3.13-1.103-6.379-1.67-9.677-1.67-7.455 0-14.447 2.742-19.716 7.731-5.271 4.992-8.183 11.635-8.183 18.702 0 9.265 5.104 17.775 13.399 22.564.935 7.207 4.159 12.855 9.287 16.107 5.936 3.764 13.68 3.873 21.824.305 8.13-3.566 15.668-10.357 21.251-19.143 5.577-8.795 8.514-18.518 8.29-27.384z"/><path fill="#C3003C" d="M46.551 20.143c-5.906 0-10.697 4.785-10.697 10.699 0 4.034 2.236 7.544 5.536 9.369-1.31 1.891-3.039 3.467-4.986 4.551-2.061 1.127-4.278 1.705-6.603 1.705-.297 0-.598-.014-.917-.035l-.27-.02.114.242c.449.959 1.005 1.834 1.648 2.615l.05.061.076-.002c3.078-.084 6.003-.836 8.687-2.227 2.57-1.34 4.834-3.244 6.525-5.516l.062-.086c.257.018.512.039.774.039 5.903 0 10.696-4.793 10.696-10.698.001-5.913-4.792-10.697-10.695-10.697z"/><path fill="#fff" d="M44.986 32.726l.399.95.068.177c0 .161-.227.338-.645.516-.493.225-1.135.354-1.795.354-2.304 0-3.623-1.567-3.623-4.086 0-2.653 1.479-4.167 3.883-4.167.852 0 1.658.241 2.199.643.121.1.188.179.188.26l-.053.178-.59.971c-.035.08-.088.111-.143.111-.048 0-.104-.011-.169-.063-.473-.378-.929-.582-1.415-.582-1.164 0-1.91.991-1.91 2.661 0 1.556.746 2.481 1.928 2.481.451 0 .904-.127 1.362-.435l.175-.081c.071-.002.106.031.141.112zM47.052 33.131l3.781-5.133-.502.261h-2.685c-.257 0-.274-.015-.274-.271v-.971c0-.242.033-.272.274-.272h4.905c.227 0 .258.03.258.272v1.082l-3.736 4.998.458-.256h3.323c.179 0 .263.049.263.164l-.019.081-.031.079-.468 1.075c-.065.143-.13.193-.29.193h-4.984c-.242 0-.273-.031-.273-.272v-1.03z"/><path fill="#C3003C" d="M40.204 20.484c1.146-.873 2.492-1.516 3.952-1.854l-.007-.01c-.891-.902-1.906-1.749-3.022-2.503l-.07-.057-.084.05c-1.046.609-2.062 1.312-3.027 2.076l-.16.129.164.122c.811.601 1.569 1.288 2.254 2.047zM20.508 42.842c-3.275-2.936-5.138-7.199-5.138-11.742 0-8.479 6.471-15.375 14.43-15.375 1.396 0 2.791.219 4.135.646 1.024-.868 2.09-1.653 3.167-2.342h-.002c-2.311-.873-4.718-1.318-7.165-1.318-5.167 0-10.014 1.9-13.666 5.358-3.654 3.461-5.672 8.065-5.672 12.965 0 6.744 3.894 12.917 10.162 16.125-.204-1.381-.291-2.821-.251-4.317z"/><path fill="#FF9200" d="M64.976 25.552c-.159-6.159-2.521-10.992-6.635-13.599-4.103-2.608-9.48-2.685-15.12-.214-5.63 2.478-10.867 7.184-14.735 13.271-3.866 6.098-5.901 12.834-5.74 18.981.163 6.16 2.515 10.992 6.627 13.602 4.115 2.605 9.482 2.682 15.128.211 5.636-2.473 10.86-7.182 14.73-13.27 3.866-6.098 5.902-12.837 5.745-18.982zm-31.881 25.845c-6.96-4.422-7.507-16.083-1.217-25.995 3.714-5.847 9.217-10.073 14.725-11.297 3.481-.779 6.701-.312 9.308 1.34 6.964 4.421 7.512 16.073 1.221 25.993-6.289 9.912-17.074 14.371-24.037 9.959z"/></svg>