<svg width="24" height="24" xmlns="http://www.w3.org/2000/svg"><title>Layer 1</title><path d="M15.572 20.057l-.167.004c-.388 0-.858-.065-1.44-.199l-.075-.018-.062-.046c-.601-.455-.648-.857-.646-1.199l-.004-.109-.023-.055-.002-.054c-.019-.271-.028-.564-.032-.949-.006-.641.005-1.358.017-2.119l.001-.05.007-.516c.01-.569.019-1.155-.004-1.729l-.16-.022c-.463-.059-.934-.108-1.398-.147-.327-.027-.701-.054-1.055-.061l-.001.21c.005.659.027 1.355.048 2.028l.032 1.089c.014.542.026 1.073.018 1.617-.005.265-.009.536-.06.884.007.138-.03.325-.207.537-.165.199-.54.492-.824.492l-.029-.001-.335.036-.12.008-.027.002-.21.001c-1.081 0-2.089-.127-2.979-.239-.535-.076-1.016-.147-1.537-.271l-.031-.008-.029-.013-.044-.01c-.162-.035-.343-.089-.614-.312l-.045-.037-.031-.05c-.264-.421-.299-.604-.273-.815v-.001l-.015-.045-.001-.062c-.001-.281.009-.534.028-.775.061-.841.154-1.604.244-2.342l.033-.267c.296-2.28.503-3.92.607-4.77-.492.317-.853.541-1.018.642l-.113.07c-.077.046-.136.073-.248.088l-.344.033c-.475 0-.686-.204-.78-.375-.23-.42.091-.923.197-1.088.015-.024.098-.139.183-.205l.145-.092c2.592-1.599 5.074-3.41 6.987-5.099.478-.392.944-.727 1.433-1.033.252-.16.543-.309.863-.441l.033-.014.036-.007.138-.036c.111-.033.249-.074.451-.074l.126.005.021.002c.441.06.642.208.75.288l.021.016c.722.509 1.33 1.004 1.868 1.44l.401.326.104.085-.003-.058c-.013-.319-.028-.68.171-1.307l.024-.077.055-.059c.382-.413.702-.588 1.072-.588l.135.005.075.003.037-.003.058-.019.061.001c.276.005.556.026.83.061.478.059.97.147 1.501.268.221.049.447.108.691.178l.096.03.294.105c.185.065.422.238.542.441l.008.015.008.015c.066.14.143.351.135.565v.002c-.012.645-.059 1.052-.078 1.227l-.007.066h-.001c-.011.14-.064.373-.165.809-.091.39-.229.951-.382 1.41-.161.551-.301.902-.513 1.044.309.3.618.603.899.888 1.539 1.5 1.558 1.68 1.45 1.943-.062.15-.202.243-.37.243-.126 0-.328-.001-1.596-.917.073.681.15 1.545.225 2.526.032.188.048.585.061 1.527.011.803.007 2.029-.073 3.314l-.018.196c-.021.261-.044.531-.125.864-.032.188-.177.465-.328.615l-.025.025-.031.02c-.265.175-.415.207-.535.225h-.003l.002-.002-.023.009-.034.007-.509.072c-.598.066-1.153.1-1.664.126-.604.029-1.096.037-1.398.039l-.358-.002zm.768-1.822l.758.011c.637 0 1.254-.022 1.84-.067l.069-.489.017-.136c.053-.494.099-1.011.134-1.529.079-1.115.125-2.146.136-3.062-.021-1.509-.016-2.614.014-3.283-.608-.471-1.504-1.17-2.205-1.717l-1.055-.821.001-.001-.138-.11c-.267-.224-.977-.818-1.951-1.612l-.323-.261c-.49-.397-1.04-.842-1.594-1.232-.171.068-.441.179-.589.299l-.015.012-.016.01c-.382.25-.79.551-1.214.896-1.214 1.072-2.649 2.187-4.258 3.309l.064.366.018.363c-.005.161-.366 2.999-.699 5.565l-.025.207c-.091.753-.186 1.531-.24 2.335l-.011.179c.395.076.805.136 1.166.185.828.102 1.707.202 2.489.202h.071l.006-.354c0-.52-.012-1.062-.026-1.569l-.028-.938c-.024-.742-.049-1.509-.045-2.279l.015-.485.013-.036v-.023c-.002-.193.021-.434.316-.836l.052-.07.079-.039c.387-.191.657-.273.903-.273l.165.01.094.006.079-.007.035-.006h.036c.566.009 1.099.053 1.591.098.548.052 1.041.11 1.507.177l.062.01.333.056.038.008.01.004c.131.011.246.06.438.181l.033.021.027.028c.287.283.361.482.383.639l.011.062c.054.295.061.501.067.701l.005.138c.018.716.007 1.364-.004 1.991l-.01.63c-.013.846-.021 1.538-.005 2.136l.018.365c.361.027.716.041 1.056.041h.167l.135-.006m1.035-12.362c.164.124.483.422 1.258 1.147l.616.581-.024-.515h.004c-.015-.196-.004-.586.021-1.449l.018-.714-.009-.024.012-.09.043-.504-.393-.093c-.46-.103-.897-.178-1.297-.226l-.408-.035.006.475c.023.573.065 1.005.079 1.147l.006.063-.015.155.091.075-.008.007z"/></svg>