<svg xmlns="http://www.w3.org/2000/svg" width="428.062" height="40" viewBox="0 0 428.062 40"><path fill="#fc0" d="M413.531 13.166l14.531 2.112-10.515 10.249 2.482 14.473-12.997-6.834-12.995 6.834 2.481-14.473-10.514-10.249 14.53-2.112 6.498-13.166zM370.312 13.166l14.532 2.112-10.516 10.249 2.484 14.473-13-6.834-12.996 6.834 2.483-14.473-10.515-10.249 14.53-2.112 6.498-13.166zM327.424 13.166l14.53 2.112-10.516 10.249 2.484 14.473-12.998-6.834-12.994 6.834 2.481-14.473-10.515-10.249 14.53-2.112 6.498-13.166zM284.534 13.166l14.53 2.112-10.515 10.249 2.483 14.473-12.997-6.834-12.996 6.834 2.482-14.473-10.515-10.249 14.531-2.112 6.498-13.166zM241.646 13.166l14.53 2.112-10.515 10.249 2.485 14.473-13-6.834-12.998 6.834 2.485-14.473-10.516-10.249 14.529-2.112 6.5-13.166z"/><path fill="#999" d="M192.257 6.778l3.806 7.716.698 1.415 1.561.227 8.516 1.238-6.162 6.007-1.129 1.105.267 1.553 1.454 8.48-7.615-4.006-1.396-.734-1.396.732-7.615 4.004 1.455-8.479.267-1.555-1.129-1.104-6.162-6.008 8.516-1.237 1.561-.228.698-1.415 3.805-7.711m0-6.778l-6.5 13.167-14.53 2.112 10.516 10.25-2.481 14.471 12.996-6.832 12.996 6.832-2.481-14.471 10.516-10.25-14.53-2.112-6.502-13.167zM149.369 6.778l3.806 7.716.697 1.415 1.561.227 8.517 1.238-6.162 6.007-1.13 1.105.268 1.553 1.455 8.48-7.617-4.006-1.396-.734-1.396.732-7.615 4.004 1.455-8.479.267-1.555-1.13-1.104-6.162-6.008 8.517-1.237 1.561-.228.698-1.415 3.806-7.711m0-6.778l-6.5 13.167-14.531 2.112 10.517 10.25-2.482 14.471 12.996-6.832 12.997 6.832-2.481-14.471 10.516-10.25-14.531-2.112-6.501-13.167zM106.479 6.778l3.805 7.716.698 1.415 1.561.227 8.517 1.238-6.162 6.007-1.13 1.105.267 1.553 1.455 8.48-7.616-4.006-1.396-.734-1.396.732-7.615 4.004 1.455-8.479.268-1.555-1.13-1.104-6.162-6.007 8.516-1.238 1.562-.227.697-1.415 3.806-7.712m0-6.778l-6.5 13.167-14.531 2.112 10.516 10.25-2.481 14.471 12.996-6.832 12.997 6.832-2.482-14.471 10.517-10.25-14.531-2.112-6.501-13.167zM63.591 6.778l3.806 7.716.698 1.415 1.561.227 8.516 1.238-6.161 6.007-1.131 1.105.268 1.553 1.455 8.48-7.616-4.006-1.396-.734-1.396.732-7.615 4.004 1.455-8.479.268-1.555-1.131-1.104-6.161-6.007 8.516-1.238 1.561-.227.698-1.415 3.805-7.712m0-6.778l-6.499 13.167-14.531 2.112 10.516 10.25-2.481 14.471 12.996-6.832 12.996 6.832-2.481-14.471 10.516-10.25-14.533-2.112-6.499-13.167zM21.031 6.778l3.805 7.716.698 1.415 1.562.227 8.516 1.238-6.162 6.007-1.13 1.105.267 1.553 1.455 8.48-7.615-4.006-1.398-.734-1.396.732-7.615 4.004 1.455-8.479.267-1.555-1.13-1.102-6.162-6.01 8.517-1.237 1.561-.228.698-1.415 3.807-7.711m0-6.778l-6.5 13.167-14.531 2.112 10.517 10.25-2.483 14.471 12.996-6.832 12.997 6.832-2.481-14.471 10.516-10.25-14.531-2.112-6.5-13.167z"/></svg>